<svg fill="#FFFFFF" xmlns="http://www.w3.org/2000/svg"  viewBox="0 0 50 50" width="25px" height="25px"><path d="M 25 2 C 12.316406 2 2 12.316406 2 25 C 2 37.683594 12.316406 48 25 48 C 37.683594 48 48 37.683594 48 25 C 48 12.316406 37.683594 2 25 2 Z M 15.734375 12 C 15.863281 11.996094 15.996094 12.015625 16.125 12.0625 C 16.148438 12.070313 18.710938 13 22 13 C 27.078125 13 28.492188 12.496094 29.109375 12.453125 C 29.457031 12.433594 29.804688 12.609375 30 12.910156 C 31.160156 14.714844 34.246094 18.371094 39.128906 19.007813 C 39.40625 19.042969 39.652344 19.191406 39.8125 19.421875 C 39.976563 19.648438 40.035156 19.929688 39.980469 20.203125 C 35.945313 39.6875 20.164063 40 20.003906 40 L 20 40 C 19.726563 40 19.460938 39.886719 19.273438 39.6875 C 19.019531 39.417969 13 32.949219 13 24 C 13 17.484375 14.769531 12.832031 14.84375 12.640625 C 14.992188 12.257813 15.351563 12.015625 15.734375 12 Z M 17.847656 16.621094 C 17.4375 18.398438 17 20.984375 17 24 C 17 29.414063 19.824219 33.886719 21.304688 35.859375 C 24.402344 35.351563 32.050781 33.007813 35.347656 22.195313 C 32.097656 21.054688 29.53125 19.035156 27.847656 17.265625 L 26 22 L 31 22 L 24 33 L 26 25 L 21 25 L 23.910156 16.992188 C 23.789063 16.988281 23.664063 16.984375 23.546875 16.964844 C 23.03125 16.988281 22.515625 17 22 17 C 20.429688 17 19.007813 16.832031 17.847656 16.621094 Z"/></svg>